<?xml version="1.0" standalone="no"?>
<!DOCTYPE svg PUBLIC "-//W3C//DTD SVG 20010904//EN"
 "http://www.w3.org/TR/2001/REC-SVG-20010904/DTD/svg10.dtd">
<svg version="1.0" xmlns="http://www.w3.org/2000/svg"
 width="412.000000pt" height="412.000000pt" viewBox="0 0 412.000000 412.000000"
 preserveAspectRatio="xMidYMid meet">
<metadata>
Created by potrace 1.11, written by Peter Selinger 2001-2013
</metadata>
<g transform="translate(0.000000,412.000000) scale(0.100000,-0.100000)"
fill="#000000" stroke="none">
<path d="M2056 3803 c-9 -58 -7 -142 4 -163 8 -15 6 -21 -11 -30 -11 -7 -27
-9 -35 -6 -9 3 -12 1 -9 -5 4 -6 -3 -7 -19 -3 -15 3 -32 1 -41 -6 -8 -6 -20
-8 -27 -4 -7 4 -10 3 -5 -1 9 -10 -21 -45 -38 -45 -7 0 -40 -30 -74 -67 -73
-81 -65 -72 -123 -128 -40 -39 -45 -49 -39 -72 10 -37 35 -51 61 -35 17 10 21
10 25 0 26 -76 33 -103 28 -111 -3 -6 -1 -7 6 -3 6 4 14 0 18 -11 4 -10 10
-20 13 -23 4 -3 12 -14 17 -25 9 -15 7 -22 -5 -33 -10 -7 -11 -10 -3 -6 10 5
12 1 7 -13 -7 -22 39 -71 48 -50 2 7 5 4 5 -6 1 -14 -66 -104 -109 -147 -9 -9
-12 -50 -4 -50 10 0 94 92 94 103 0 5 6 5 13 1 6 -4 9 -4 5 1 -4 4 4 21 18 38
26 31 28 64 3 59 -8 -1 -3 6 10 16 23 19 25 19 72 1 27 -11 58 -19 68 -19 11
0 26 -6 33 -12 37 -35 45 -39 74 -28 15 6 33 19 40 29 7 9 30 23 51 29 22 6
50 23 63 37 12 13 28 22 34 18 6 -3 8 -3 4 2 -11 12 11 35 33 35 26 0 47 45
32 68 -6 10 -7 29 -2 47 12 45 18 154 8 157 -5 2 -10 18 -12 36 -2 18 -14 46
-25 62 -12 16 -22 33 -22 38 0 11 -68 74 -96 90 -15 8 -16 13 -5 26 7 9 17 14
21 11 4 -2 7 14 7 36 0 33 -4 40 -24 46 -30 7 -101 -15 -127 -39 -26 -23 -37
-23 -28 1 10 29 -1 184 -14 188 -6 2 -14 -13 -18 -34z m209 -293 c3 -5 -1 -10
-9 -10 -9 0 -16 5 -16 10 0 6 4 10 9 10 6 0 13 -4 16 -10z m83 -129 c9 -26 8
-30 -11 -35 -40 -11 -49 -7 -41 16 7 23 25 47 36 48 3 0 11 -13 16 -29z m-578
-126 c5 -14 16 -25 25 -25 8 0 15 -4 15 -8 0 -10 -21 -32 -30 -32 -10 0 -30
48 -30 70 0 27 9 25 20 -5z"/>
<path d="M2444 3733 c3 -3 -14 -29 -38 -57 -52 -61 -69 -93 -62 -112 8 -21 36
-17 36 5 0 10 20 43 43 72 55 68 62 85 35 92 -11 3 -17 3 -14 0z"/>
<path d="M1675 3669 c-6 -9 64 -95 92 -112 7 -4 13 -14 13 -22 0 -9 6 -12 15
-9 24 10 18 26 -30 78 -24 26 -43 53 -42 58 3 14 -40 20 -48 7z"/>
<path d="M1550 3525 c-18 -21 -7 -30 74 -64 86 -36 130 -40 124 -13 -2 9 -10
16 -18 14 -24 -6 -61 8 -54 20 4 6 3 8 -3 5 -13 -8 -75 16 -96 37 -13 13 -17
14 -27 1z"/>
<path d="M2630 3483 c-38 -17 -96 -34 -121 -36 -15 -1 -21 -20 -13 -45 3 -10
9 -9 28 4 14 8 29 13 34 10 6 -3 15 1 22 9 7 8 16 12 21 9 5 -3 9 0 9 5 0 6 8
11 18 11 25 1 58 28 46 39 -5 6 -23 4 -44 -6z"/>
<path d="M2430 3155 c0 -8 11 -17 25 -21 14 -3 25 -10 25 -14 0 -5 21 -18 46
-30 35 -17 48 -20 57 -11 9 10 7 16 -8 26 -11 8 -24 18 -30 22 -5 4 -19 10
-30 11 -11 2 -27 10 -36 18 -20 18 -49 18 -49 -1z"/>
<path d="M1674 3142 c2 -4 -15 -21 -39 -37 -25 -17 -45 -33 -45 -37 0 -5 -5
-8 -12 -8 -18 0 -78 -50 -78 -66 0 -18 10 -17 34 1 10 8 23 12 27 9 5 -3 9 -1
9 4 0 5 29 29 65 52 58 38 85 65 85 84 0 3 -12 6 -26 6 -14 0 -23 -4 -20 -8z"/>
<path d="M2187 2924 c-3 -3 8 -33 24 -67 16 -34 29 -70 29 -80 0 -26 18 -57
34 -57 14 0 18 29 6 45 -4 6 -11 27 -14 49 -8 40 -50 116 -64 116 -5 0 -11 -3
-15 -6z"/>
<path d="M3174 2782 c5 -8 -1 -12 -18 -12 -62 0 -122 -44 -132 -97 -3 -18 -10
-33 -16 -33 -5 0 -7 4 -4 9 6 9 -22 6 -102 -11 -97 -21 -146 -116 -90 -175
l21 -23 -110 0 -111 0 -36 41 c-43 51 -70 44 -30 -8 l27 -36 -48 7 c-37 6 -46
5 -43 -6 3 -7 24 -15 48 -18 l43 -5 -26 -14 c-28 -15 -37 -41 -13 -41 7 0 27
13 43 29 29 27 35 29 125 30 70 1 95 -2 96 -11 1 -7 5 -30 8 -50 6 -37 5 -38
-24 -38 -16 0 -67 -12 -113 -26 -46 -14 -129 -38 -184 -54 -55 -16 -145 -45
-200 -65 -55 -21 -108 -38 -117 -38 -9 -1 -14 -5 -12 -9 5 -7 -10 -12 -28 -9
-5 0 -8 -4 -8 -9 0 -6 -8 -10 -17 -10 -14 0 -15 2 -4 9 15 10 17 49 9 206 -5
100 3 145 27 145 7 0 23 -10 37 -22 14 -13 31 -24 39 -26 17 -4 29 -22 29 -44
0 -24 11 -48 21 -48 5 0 9 16 9 35 0 33 1 34 25 23 31 -14 47 -1 22 17 -20 14
-12 24 15 20 11 -2 15 2 11 11 -4 10 -18 12 -54 8 -44 -5 -54 -2 -96 28 -27
18 -58 41 -70 52 l-23 19 23 16 c12 9 26 16 31 16 5 0 11 16 14 35 2 19 5 37
7 38 10 10 -63 73 -94 82 -128 35 -255 -21 -249 -110 2 -21 5 -37 7 -35 2 2
13 -5 24 -16 19 -17 20 -21 5 -35 -8 -8 -21 -16 -29 -17 -8 -2 -51 -21 -97
-45 -45 -23 -84 -42 -87 -42 -3 0 -26 0 -52 0 -43 0 -45 -1 -27 -15 11 -8 14
-15 7 -15 -7 0 -13 -7 -13 -15 0 -18 1 -18 34 -5 21 8 24 7 19 -8 -3 -9 -10
-22 -15 -29 -6 -7 -4 -14 3 -19 7 -4 9 -3 6 3 -4 6 2 13 12 16 10 2 24 19 32
36 11 25 32 40 97 72 78 38 85 39 97 23 10 -15 9 -21 -5 -37 -26 -27 -31 -55
-12 -73 17 -18 21 -106 4 -112 -6 -2 -8 -18 -5 -37 3 -19 2 -42 -2 -52 -5 -10
-7 -23 -6 -29 1 -7 -36 -18 -86 -28 -104 -20 -210 -45 -238 -56 -40 -17 -50
-9 -46 32 3 33 -2 45 -25 70 l-29 30 -90 -6 c-49 -3 -107 -11 -129 -17 -60
-17 -76 -19 -76 -8 0 5 4 9 8 9 5 0 8 8 8 18 -1 9 3 63 8 119 6 80 12 105 27
119 10 9 19 24 19 32 0 10 4 12 12 4 7 -5 40 -18 73 -28 61 -19 78 -31 68 -48
-3 -5 -1 -6 6 -2 6 4 14 0 17 -8 9 -23 27 -19 21 4 -5 21 7 28 18 10 10 -15
35 -12 35 5 0 8 -4 15 -8 15 -5 0 -17 7 -28 16 -19 15 -19 15 3 11 13 -3 24 1
27 9 8 21 -5 23 -56 6 -52 -16 -41 -19 -191 48 l-48 21 26 30 c14 17 23 35 20
40 -3 4 22 6 57 3 69 -6 107 9 95 39 -9 23 -82 41 -116 29 -23 -8 -30 -6 -40
10 -14 23 -63 45 -106 48 -73 5 -95 -1 -131 -32 -33 -29 -42 -32 -94 -31 -60
1 -71 -6 -75 -47 -2 -17 9 -19 90 -20 43 0 53 -4 74 -31 13 -16 21 -32 18 -35
-3 -3 -35 -6 -71 -7 -36 -1 -66 -5 -66 -8 0 -11 -101 -29 -118 -20 -9 4 -34
11 -54 15 -31 6 -38 4 -38 -9 0 -8 5 -15 11 -15 5 0 7 -5 4 -10 -4 -6 -12 -7
-18 -4 -7 4 -8 3 -4 -2 5 -5 12 -9 15 -10 4 0 15 -4 25 -8 9 -5 25 -5 35 -1
14 5 15 4 5 -6 -14 -14 -18 -49 -5 -49 4 0 17 15 29 32 20 28 34 35 115 55
111 27 122 28 114 8 -3 -8 2 -21 10 -30 9 -8 12 -15 7 -15 -4 0 -9 -28 -10
-62 -1 -34 -10 -91 -18 -126 -10 -38 -14 -79 -10 -102 5 -28 2 -42 -10 -54
-14 -14 -47 -22 -58 -13 -2 1 -10 -3 -18 -9 -22 -18 -118 -46 -134 -40 -8 3
-15 1 -15 -3 0 -5 -24 -15 -52 -21 -68 -16 -185 -60 -238 -89 -21 -11 -60 -71
-60 -91 0 -27 43 -84 74 -99 32 -15 65 -8 152 31 27 12 54 23 59 24 13 3 187
53 200 58 6 2 17 6 25 9 48 17 86 27 111 27 27 0 29 -3 29 -40 0 -31 5 -43 25
-56 14 -9 23 -19 21 -23 -3 -4 28 -8 68 -10 54 -2 88 3 132 19 60 21 263 72
300 75 11 1 26 5 33 9 7 5 35 14 62 21 54 14 55 14 61 -35 2 -15 17 -34 38
-48 29 -19 45 -23 97 -20 34 1 60 4 58 7 -3 2 21 15 53 29 31 13 73 32 92 42
19 10 44 20 55 22 11 1 23 7 26 11 3 4 16 9 27 10 12 1 22 5 22 10 0 4 5 5 10
2 6 -3 10 -1 10 4 0 6 3 10 8 9 4 -1 27 8 52 19 25 12 61 28 80 36 19 8 59 25
87 37 72 30 87 22 83 -45 -1 -3 13 -20 30 -36 44 -45 120 -50 212 -16 82 31
276 79 289 71 5 -3 9 0 9 6 0 7 7 10 15 6 8 -3 15 -2 15 3 0 4 7 8 15 8 8 0
15 -4 15 -9 0 -4 -4 -8 -8 -8 -20 0 -63 -49 -72 -82 -13 -45 0 -81 35 -104 39
-26 112 -19 231 21 55 19 109 36 120 38 10 2 44 9 75 17 44 10 64 10 89 1 80
-27 144 2 160 73 19 85 -30 144 -127 150 -26 2 -51 4 -54 5 -4 0 -9 19 -12 42
-3 25 -15 49 -31 63 -13 13 -23 26 -20 28 7 8 -25 10 -151 13 -66 1 -124 -1
-130 -5 -11 -9 -102 -24 -108 -19 -2 2 -11 -2 -19 -9 -14 -11 -15 -6 -12 50 2
35 4 72 5 83 0 11 3 34 5 51 l4 32 63 -20 c34 -11 79 -24 99 -28 21 -4 46 -18
57 -31 22 -28 41 -18 23 12 -12 19 -11 20 14 17 39 -4 41 19 3 27 l-32 7 29
23 c24 20 26 25 13 30 -11 4 -27 -5 -46 -24 -28 -28 -35 -30 -87 -25 -30 2
-78 14 -106 27 l-50 22 27 35 c30 37 31 68 6 106 -14 22 -12 26 56 92 72 70
81 85 59 98 -7 4 -8 3 -4 -4z m-2227 -564 c-3 -8 -6 -5 -6 6 -1 11 2 17 5 13
3 -3 4 -12 1 -19z m81 -99 l57 -1 -50 -14 c-89 -26 -109 -28 -101 -9 3 9 6 21
6 27 0 6 7 7 16 4 9 -3 41 -6 72 -7z m1052 -23 c0 -2 -7 -6 -15 -10 -8 -3 -15
-1 -15 4 0 6 7 10 15 10 8 0 15 -2 15 -4z"/>
<path d="M0 1302 l0 -247 168 0 167 0 0 35 0 35 -120 0 c-68 0 -123 4 -127 10
-4 6 -8 101 -8 213 l0 202 -40 0 -40 0 0 -248z"/>
<path d="M2180 1470 l0 -82 -34 21 c-63 39 -181 14 -208 -44 -6 -14 -15 -25
-19 -25 -4 0 -7 -39 -7 -87 0 -99 23 -163 67 -183 34 -16 150 -29 154 -17 3 9
27 11 87 5 l35 -3 0 245 0 245 -37 3 -38 3 0 -81z m-56 -126 c9 -8 16 -12 16
-7 0 18 30 -50 36 -82 10 -56 -4 -93 -46 -121 -45 -30 -82 -25 -111 17 -34 46
-24 174 15 196 27 15 74 14 90 -3z"/>
<path d="M3164 1537 c-2 -7 -3 -118 -2 -247 l3 -234 148 3 c201 4 217 9 252
90 26 58 14 112 -34 155 -20 19 -20 19 -1 46 22 31 28 124 9 135 -6 4 -8 14
-5 22 3 8 2 12 -2 9 -5 -3 -21 4 -38 15 -25 16 -47 19 -177 19 -110 0 -149 -3
-153 -13z m285 -81 c28 -26 26 -52 -6 -82 -25 -23 -33 -25 -107 -22 l-81 3 -3
54 c-2 36 1 57 10 63 7 5 47 7 89 6 59 -2 82 -8 98 -22z m3 -191 c9 -3 22 -20
28 -36 16 -38 1 -75 -37 -90 -36 -15 -164 -19 -180 -6 -14 10 -18 128 -5 141
8 9 168 2 194 -9z"/>
<path d="M3640 1305 c0 -266 0 -265 55 -251 l25 6 0 245 0 245 -40 0 -40 0 0
-245z"/>
<path d="M455 1415 c-50 -27 -65 -46 -65 -82 0 -31 2 -33 33 -33 25 0 36 6 49
30 16 28 34 35 78 31 30 -3 60 -25 60 -42 0 -24 -23 -35 -90 -43 -30 -4 -70
-11 -88 -17 -76 -25 -86 -165 -13 -199 31 -15 114 -13 156 4 25 11 36 10 69
-5 48 -21 80 -12 84 23 2 19 -2 27 -19 31 -21 6 -21 9 -17 117 2 61 1 113 -4
116 -4 3 -8 14 -8 25 0 10 -5 19 -11 19 -5 0 -7 6 -3 13 4 6 3 9 -1 4 -5 -4
-18 -1 -29 6 -31 20 -145 21 -181 2z m155 -223 c0 -31 -42 -78 -59 -67 -6 3
-11 1 -11 -5 0 -7 -13 -10 -32 -8 -20 2 -32 8 -30 16 1 6 -4 11 -10 10 -17 -4
-22 36 -6 49 18 15 76 31 116 32 29 1 32 -2 32 -27z"/>
<path d="M780 1420 c-39 -6 -40 -15 -16 -80 8 -19 14 -38 15 -43 0 -4 7 -20
15 -36 9 -16 29 -64 46 -107 18 -44 36 -84 41 -91 8 -9 48 -11 80 -4 4 0 15
23 25 50 10 28 22 47 27 44 6 -3 7 -1 4 5 -4 5 3 32 15 59 11 26 22 53 23 58
2 6 12 38 24 72 12 34 21 65 21 68 0 3 -19 5 -42 5 l-43 0 -32 -88 c-17 -48
-37 -104 -44 -124 -7 -21 -15 -38 -19 -38 -3 0 -23 54 -44 120 -22 66 -44 124
-50 128 -6 5 -27 6 -46 2z"/>
<path d="M1210 1408 c-60 -31 -90 -88 -90 -174 0 -119 48 -175 155 -182 107
-7 171 27 189 101 5 23 3 27 -16 28 -41 2 -53 -2 -73 -27 -42 -51 -126 -48
-155 7 -24 44 -9 50 112 49 62 -1 119 -1 126 -1 20 1 15 89 -9 138 -39 80
-146 107 -239 61z m151 -77 c51 -51 42 -61 -61 -61 -57 0 -90 4 -90 11 0 35
53 78 98 79 13 0 37 -13 53 -29z"/>
<path d="M1655 1418 c-16 -6 -33 -16 -37 -22 -5 -7 -8 -4 -8 7 0 15 -7 18 -37
15 l-38 -3 0 -180 0 -180 38 -2 37 -1 1 101 c1 56 1 106 0 110 -1 5 6 23 15
42 29 62 113 71 141 15 8 -16 13 -68 13 -141 l0 -117 27 -5 c16 -3 31 -3 35 0
5 2 8 72 8 154 0 166 -7 189 -62 208 -38 14 -93 13 -133 -1z"/>
<path d="M2401 1408 c-55 -28 -81 -76 -90 -162 -6 -55 -3 -68 19 -112 31 -60
76 -85 153 -86 68 -1 121 17 146 47 10 14 20 22 23 20 2 -3 4 10 3 28 -1 29
-5 32 -34 35 -25 3 -37 -2 -48 -17 -8 -12 -19 -19 -24 -15 -5 3 -8 0 -7 -7 4
-15 -49 -30 -78 -23 -27 7 -58 42 -62 71 -3 22 -1 22 130 25 l133 3 -2 46 c-3
103 -58 161 -158 167 -48 3 -69 -1 -104 -20z m147 -73 c16 -14 32 -34 35 -45
5 -19 0 -20 -94 -20 -89 0 -98 2 -92 18 12 35 63 71 100 72 12 0 35 -11 51
-25z"/>
<path d="M2842 1410 c-13 -22 -33 -27 -29 -7 1 8 -11 12 -38 12 l-40 0 0 -179
0 -180 35 0 35 -1 5 117 c4 98 8 121 26 145 12 15 30 29 40 31 57 9 60 11 59
44 -1 31 -3 33 -40 36 -31 2 -43 -2 -53 -18z"/>
<path d="M3805 1414 c-6 -2 -8 -59 -3 -161 7 -170 9 -186 16 -178 3 3 15 -1
26 -9 35 -23 110 -25 153 -5 32 15 39 15 46 3 10 -17 49 -18 65 -2 13 13 17
292 6 336 -5 17 -14 22 -40 22 l-34 0 0 -97 c0 -54 -5 -115 -10 -135 -13 -47
-52 -79 -92 -74 -56 6 -63 23 -66 171 l-4 135 -26 -1 c-15 0 -31 -2 -37 -5z"/>
<path d="M2855 1330 c-3 -6 1 -7 9 -4 18 7 21 14 7 14 -6 0 -13 -4 -16 -10z"/>
<path d="M487 648 c2 -5 -1 -8 -6 -8 -6 0 -10 -3 -10 -7 1 -5 0 -12 -1 -18 -1
-5 -3 -21 -3 -35 -1 -14 -7 -24 -13 -23 -21 4 -24 -36 -3 -47 16 -9 19 -24 21
-108 l3 -97 28 -3 27 -3 0 106 0 106 38 -3 37 -3 1 -88 c2 -113 20 -135 97
-119 16 4 6 41 -14 47 -18 6 -20 14 -18 85 1 44 5 79 8 78 3 0 12 0 19 1 19 1
11 46 -8 46 -10 0 -17 13 -20 35 -4 29 -10 36 -32 38 -28 3 -34 -10 -29 -54 2
-16 -39 -25 -61 -13 -25 13 -23 27 6 40 25 12 25 48 0 50 -46 4 -71 3 -67 -3z"/>
<path d="M1380 649 c-47 -17 -71 -83 -54 -146 6 -23 52 -43 152 -64 64 -13 83
-38 52 -69 -39 -39 -150 -16 -150 31 0 24 -16 32 -46 25 -53 -14 -17 -104 52
-126 88 -29 191 -4 217 53 34 77 1 131 -94 151 -99 21 -121 32 -117 58 7 48
118 50 140 2 8 -17 19 -24 40 -24 24 0 28 4 28 28 0 29 -25 59 -67 81 -26 13
-117 13 -153 0z"/>
<path d="M3023 645 c0 -8 5 -12 11 -9 6 3 4 0 -4 -8 -41 -35 -50 -61 -50 -152
0 -81 2 -92 26 -124 47 -61 144 -82 218 -47 44 21 65 49 73 99 5 34 4 36 -23
36 -24 0 -32 -8 -47 -39 -35 -76 -129 -74 -167 4 -21 43 -28 121 -10 110 5 -3
7 0 4 8 -3 8 8 28 25 45 24 26 37 32 71 32 36 0 47 -6 75 -35 28 -31 35 -34
58 -26 25 10 25 10 9 44 -29 65 -136 98 -218 67 -18 -7 -30 -7 -39 0 -8 7 -12
5 -12 -5z"/>
<path d="M3734 648 c-4 -6 -6 -65 -6 -131 1 -82 -3 -126 -11 -136 -9 -12 -9
-13 0 -8 9 6 12 -2 11 -28 -2 -45 11 -59 43 -46 14 5 32 5 40 1 42 -23 126 8
147 56 18 37 15 139 -3 154 -8 7 -13 16 -10 20 3 5 -4 11 -15 15 -11 3 -20 10
-20 15 0 5 -7 6 -17 3 -12 -5 -14 -3 -8 8 8 12 6 12 -8 0 -10 -8 -20 -11 -23
-8 -3 3 -19 1 -34 -3 -16 -5 -29 -5 -28 -2 1 4 -2 26 -6 49 -7 41 -38 65 -52
41z m155 -155 c28 -26 23 -105 -7 -131 -46 -40 -99 7 -89 79 3 22 11 46 17 54
17 20 57 19 79 -2z"/>
<path d="M206 583 c-16 -38 -32 -77 -36 -88 -4 -11 -19 -45 -33 -75 -13 -30
-27 -69 -31 -86 -6 -27 -4 -32 15 -37 13 -4 28 -2 34 3 7 6 15 7 19 3 4 -4 5
-1 2 7 -3 8 3 31 12 50 16 33 20 35 67 36 64 1 85 -5 85 -23 0 -8 7 -29 15
-47 13 -28 20 -32 45 -28 17 2 30 10 30 17 0 12 -43 135 -71 203 -16 40 -27
66 -39 100 -11 28 -17 32 -50 32 -36 0 -37 -1 -64 -67z m69 -53 c-3 -4 -1 -10
4 -12 5 -1 12 -18 16 -35 6 -32 6 -33 -28 -33 -38 0 -39 2 -18 63 7 20 17 35
22 31 5 -3 7 -9 4 -14z"/>
<path d="M1907 643 c-4 -3 -7 -82 -7 -175 l0 -168 30 0 30 0 0 76 c0 75 13
120 31 109 5 -4 8 -1 7 7 -2 8 8 14 24 16 37 4 48 -25 48 -129 l0 -79 31 0 31
0 -4 116 c-3 102 -6 117 -23 130 -11 7 -24 17 -30 21 -11 9 -36 9 -82 -1 l-33
-8 0 46 c0 42 -2 46 -23 46 -13 0 -27 -3 -30 -7z"/>
<path d="M2734 637 c-2 -7 -3 -85 -2 -172 l3 -160 28 -3 27 -3 0 175 0 176
-25 0 c-14 0 -28 -6 -31 -13z"/>
<path d="M3350 630 c-3 -179 1 -325 8 -332 5 -5 16 -6 25 -2 15 5 17 27 17
180 l0 174 -25 0 c-18 0 -25 -5 -25 -20z"/>
<path d="M779 573 c-1 -5 -1 -11 0 -15 0 -5 -3 -8 -7 -8 -13 0 -41 -54 -47
-90 -3 -19 -1 -56 6 -83 9 -40 18 -53 47 -70 58 -35 154 -14 183 39 23 44 -18
60 -64 24 -42 -34 -97 -22 -97 21 0 15 11 17 80 16 44 0 85 4 91 10 19 19 -2
86 -38 122 -33 33 -35 33 -94 27 -42 -5 -59 -4 -54 3 3 6 4 11 1 11 -3 0 -7
-3 -7 -7z m109 -75 c26 -26 13 -38 -38 -38 -34 0 -50 4 -50 13 0 21 22 37 50
37 14 0 31 -5 38 -12z"/>
<path d="M2544 569 c-3 -5 -13 -9 -24 -9 -10 0 -32 -16 -50 -36 -30 -35 -31
-39 -26 -103 6 -84 8 -91 17 -85 4 2 15 -6 23 -18 12 -16 30 -23 71 -28 32 -4
59 -2 65 4 5 5 10 6 10 2 0 -4 16 12 36 35 34 41 36 46 32 106 -3 54 -8 68
-33 93 -31 30 -110 56 -121 39z m70 -81 c19 -29 18 -86 -2 -115 -33 -52 -105
-12 -105 57 0 70 74 109 107 58z"/>
<path d="M1101 561 c-8 -5 -29 -7 -48 -4 l-33 6 0 -131 0 -130 25 -4 c13 -3
27 -3 30 0 3 3 5 42 5 87 0 87 8 105 58 119 16 6 22 15 22 37 0 23 -4 29 -22
29 -13 0 -29 -4 -37 -9z"/>
<path d="M1705 559 c-34 -9 -60 -47 -68 -96 -3 -17 -8 -36 -11 -42 -4 -5 -2
-12 3 -15 4 -3 11 -19 14 -35 10 -48 45 -77 99 -80 26 -1 57 3 70 10 13 7 27
12 31 11 5 -1 6 2 3 7 -3 5 1 14 9 21 21 17 19 57 -2 62 -23 6 -43 -1 -43 -14
0 -17 -33 -37 -62 -38 -34 0 -48 24 -48 83 0 74 57 102 104 52 52 -56 91 -11
43 49 -19 24 -32 30 -68 31 -24 1 -58 -1 -74 -6z"/>
<path d="M2233 554 c-48 -20 -68 -57 -68 -125 0 -71 24 -108 83 -129 37 -13
47 -12 84 1 98 36 120 169 41 242 -25 22 -99 28 -140 11z m90 -54 c35 -27 43
-70 22 -115 -15 -29 -22 -35 -50 -35 -70 0 -98 98 -42 146 34 29 38 29 70 4z"/>
<path d="M3459 558 c-1 -5 -1 -182 0 -206 2 -46 81 -72 144 -47 9 4 23 3 30
-3 6 -5 20 -7 30 -3 16 6 19 21 20 129 2 128 1 132 -44 132 -17 0 -19 -8 -19
-90 0 -84 -1 -90 -25 -106 -15 -10 -34 -14 -49 -10 -22 5 -25 13 -31 81 -4 41
-5 84 -2 94 3 12 -1 22 -10 25 -15 6 -43 8 -44 4z"/>
</g>
</svg>
